<svg xmlns="http://www.w3.org/2000/svg" viewBox="0 0 1920 820" role="img" aria-label="문이 활짝 열린 교회와 반갑게 맞이하는 사람들">
<defs>
<linearGradient id="skyDay" x1="0" y1="0" x2="0" y2="1"><stop offset="0" stop-color="#7FD0FF"/><stop offset=".55" stop-color="#D3F1FF"/><stop offset="1" stop-color="#FFF6D2"/></linearGradient>
<linearGradient id="skyDawn" x1="0" y1="0" x2="0" y2="1"><stop offset="0" stop-color="#86CBFF"/><stop offset=".5" stop-color="#FFE7B0"/><stop offset="1" stop-color="#FFC08E"/></linearGradient>
<linearGradient id="skyDusk" x1="0" y1="0" x2="0" y2="1"><stop offset="0" stop-color="#4A66DB"/><stop offset=".55" stop-color="#B58AE8"/><stop offset="1" stop-color="#FFB088"/></linearGradient>
<linearGradient id="skyWarm" x1="0" y1="0" x2="0" y2="1"><stop offset="0" stop-color="#FFD48F"/><stop offset=".5" stop-color="#FFE8C4"/><stop offset="1" stop-color="#FFF7E6"/></linearGradient>
<linearGradient id="skySunset" x1="0" y1="0" x2="0" y2="1"><stop offset="0" stop-color="#FF7F6B"/><stop offset=".45" stop-color="#FFB86B"/><stop offset="1" stop-color="#FFE7A0"/></linearGradient>
<linearGradient id="skyMint" x1="0" y1="0" x2="0" y2="1"><stop offset="0" stop-color="#CDEFE0"/><stop offset="1" stop-color="#F3FBEE"/></linearGradient>
<linearGradient id="h1" x1="0" y1="0" x2="0" y2="1"><stop offset="0" stop-color="#CFF08F"/><stop offset="1" stop-color="#A8DC66"/></linearGradient>
<linearGradient id="h2" x1="0" y1="0" x2="0" y2="1"><stop offset="0" stop-color="#9DD650"/><stop offset="1" stop-color="#6FC04A"/></linearGradient>
<linearGradient id="h3" x1="0" y1="0" x2="0" y2="1"><stop offset="0" stop-color="#5EC07E"/><stop offset="1" stop-color="#33A46C"/></linearGradient>
<linearGradient id="h4" x1="0" y1="0" x2="0" y2="1"><stop offset="0" stop-color="#2FA068"/><stop offset="1" stop-color="#1B7F52"/></linearGradient>
<linearGradient id="soil" x1="0" y1="0" x2="0" y2="1"><stop offset="0" stop-color="#C2854C"/><stop offset="1" stop-color="#7E4B29"/></linearGradient>
<linearGradient id="water" x1="0" y1="0" x2="0" y2="1"><stop offset="0" stop-color="#FFC46B" stop-opacity=".9"/><stop offset="1" stop-color="#5BB6E8" stop-opacity=".9"/></linearGradient>
<linearGradient id="bark" x1="0" y1="0" x2="1" y2="0"><stop offset="0" stop-color="#8A5F3A"/><stop offset=".5" stop-color="#BE8F5A"/><stop offset="1" stop-color="#7A5230"/></linearGradient>
<radialGradient id="sunGlow"><stop offset="0" stop-color="#FFF3B8" stop-opacity="1"/><stop offset="1" stop-color="#FFF3B8" stop-opacity="0"/></radialGradient>
<g id="leaf"><path d="M0 0C24-46 96-56 140 0C96 56 24 46 0 0Z"/><path d="M10 0H120" stroke="#fff" stroke-opacity=".4" stroke-width="4" fill="none" stroke-linecap="round"/></g>
<g id="cloud"><ellipse cx="0" cy="0" rx="120" ry="42" fill="#fff"/><ellipse cx="-70" cy="10" rx="70" ry="34" fill="#fff"/><ellipse cx="70" cy="12" rx="80" ry="34" fill="#fff"/><ellipse cx="0" cy="-30" rx="70" ry="42" fill="#fff"/></g>
<g id="spark"><path d="M0-22C3-8 8-3 22 0C8 3 3 8 0 22C-3 8-8 3-22 0C-8-3-3-8 0-22Z"/></g>
<g id="bird"><path d="M-34 0C-20-26-6-22 0-6C6-22 20-26 34 0C20-12 8-10 0 8C-8-10-20-12-34 0Z"/></g>
<g id="fruit"><path d="M0-30q4-22 16-30" stroke="#6B4A2F" stroke-width="6" stroke-linecap="round" fill="none"/><path d="M8-44C22-62 44-60 52-48C40-36 20-36 8-44Z" fill="#5EB03A"/><circle r="38" fill="#FF5A4D"/><path d="M-22-14C-16-28-4-32 6-30" stroke="#fff" stroke-opacity=".55" stroke-width="7" stroke-linecap="round" fill="none"/></g>
<g id="fruitY"><path d="M0-30q4-22 16-30" stroke="#6B4A2F" stroke-width="6" stroke-linecap="round" fill="none"/><path d="M8-44C22-62 44-60 52-48C40-36 20-36 8-44Z" fill="#5EB03A"/><circle r="38" fill="#FFB52E"/><path d="M-22-14C-16-28-4-32 6-30" stroke="#fff" stroke-opacity=".6" stroke-width="7" stroke-linecap="round" fill="none"/></g>
<path id="drop" d="M0-44C30-6 30 26 0 26C-30 26-30-6 0-44Z"/>
<g id="note"><ellipse cx="0" cy="0" rx="13" ry="9" transform="rotate(-22)"/><rect x="10" y="-64" width="6" height="62"/><path d="M16-64q26 6 28 32q-12-16-28-18Z"/></g>
<g id="heart"><path d="M0 18C-30-6-26-30-8-30C-2-30 0-24 0-22C0-24 2-30 8-30C26-30 30-6 0 18Z"/></g>
<g id="flower"><ellipse cx="0" cy="-16" rx="9" ry="15"/><ellipse cx="0" cy="-16" rx="9" ry="15" transform="rotate(72)"/><ellipse cx="0" cy="-16" rx="9" ry="15" transform="rotate(144)"/><ellipse cx="0" cy="-16" rx="9" ry="15" transform="rotate(216)"/><ellipse cx="0" cy="-16" rx="9" ry="15" transform="rotate(288)"/><circle r="8" fill="#FFD84D"/></g>
<style>
.sway{transform-box:fill-box;transform-origin:50% 100%;animation:sway 6s ease-in-out infinite}
@keyframes sway{0%,100%{transform:rotate(-1.6deg)}50%{transform:rotate(1.6deg)}}
.float{animation:float 6s ease-in-out infinite}
@keyframes float{0%,100%{transform:translateY(0)}50%{transform:translateY(-16px)}}
.bob{animation:bob 2.4s ease-in-out infinite}
@keyframes bob{0%,100%{transform:translateY(0)}50%{transform:translateY(-10px)}}
.cl{animation:cl 18s ease-in-out infinite alternate}
@keyframes cl{from{transform:translateX(-30px)}to{transform:translateX(40px)}}
.spin{transform-box:fill-box;transform-origin:50% 50%;animation:spin 70s linear infinite}
@keyframes spin{to{transform:rotate(360deg)}}
.tw{animation:tw 3s ease-in-out infinite}
@keyframes tw{0%,100%{opacity:.25}50%{opacity:1}}
.fall{animation:fall 3.2s ease-in infinite}
@keyframes fall{0%{transform:translateY(-40px);opacity:0}15%{opacity:1}100%{transform:translateY(130px);opacity:0}}
.fly{animation:fly 16s ease-in-out infinite alternate}
@keyframes fly{from{transform:translate(-40px,10px)}to{transform:translate(70px,-30px)}}
.pulse{transform-box:fill-box;transform-origin:50% 50%;animation:pulse 3.6s ease-in-out infinite}
@keyframes pulse{0%,100%{transform:scale(1);opacity:.92}50%{transform:scale(1.07);opacity:1}}
@media (prefers-reduced-motion:reduce){*{animation:none!important}}
</style>
</defs>
<rect width="1920" height="820" fill="url(#skyDawn)"/>
<polygon points="1450,470 460.73,323.92 470.42,268.92" fill="#FFF3B8" opacity="0.28"/><polygon points="1450,470 497.93,164.11 516.49,111.44" fill="#FFF3B8" opacity="0.28"/><polygon points="1450,470 560.77,12.54 587.69,-36.39" fill="#FFF3B8" opacity="0.28"/><polygon points="1450,470 647.55,-126.72 682.11,-170.58" fill="#FFF3B8" opacity="0.28"/><polygon points="1450,470 755.93,-249.91 797.2,-287.53" fill="#FFF3B8" opacity="0.28"/><polygon points="1450,470 883,-353.72 929.87,-384.09" fill="#FFF3B8" opacity="0.28"/><polygon points="1450,470 1025.34,-435.35 1076.54,-457.64" fill="#FFF3B8" opacity="0.28"/><polygon points="1450,470 1179.1,-492.61 1233.26,-506.23" fill="#FFF3B8" opacity="0.28"/><polygon points="1450,470 1340.16,-523.95 1395.82,-528.53" fill="#FFF3B8" opacity="0.28"/><polygon points="1450,470 1504.18,-528.53 1559.84,-523.95" fill="#FFF3B8" opacity="0.28"/><polygon points="1450,470 1666.74,-506.23 1720.9,-492.61" fill="#FFF3B8" opacity="0.28"/><polygon points="1450,470 1823.46,-457.64 1874.66,-435.35" fill="#FFF3B8" opacity="0.28"/><polygon points="1450,470 1970.13,-384.09 2017,-353.72" fill="#FFF3B8" opacity="0.28"/><polygon points="1450,470 2102.8,-287.53 2144.07,-249.91" fill="#FFF3B8" opacity="0.28"/><polygon points="1450,470 2217.89,-170.58 2252.45,-126.72" fill="#FFF3B8" opacity="0.28"/><polygon points="1450,470 2312.31,-36.39 2339.23,12.54" fill="#FFF3B8" opacity="0.28"/><polygon points="1450,470 2383.51,111.44 2402.07,164.11" fill="#FFF3B8" opacity="0.28"/><polygon points="1450,470 2429.58,268.92 2439.27,323.92" fill="#FFF3B8" opacity="0.28"/>
<circle cx="1700" cy="140" r="252" fill="url(#sunGlow)"/>
<g class="spin"><g transform="translate(1700 140)" fill="#FFD84D" opacity=".55"><polygon points="-10,-91 10,-91 0,-157.5" transform="rotate(0)"/><polygon points="-10,-91 10,-91 0,-157.5" transform="rotate(25.71)"/><polygon points="-10,-91 10,-91 0,-157.5" transform="rotate(51.43)"/><polygon points="-10,-91 10,-91 0,-157.5" transform="rotate(77.14)"/><polygon points="-10,-91 10,-91 0,-157.5" transform="rotate(102.86)"/><polygon points="-10,-91 10,-91 0,-157.5" transform="rotate(128.57)"/><polygon points="-10,-91 10,-91 0,-157.5" transform="rotate(154.29)"/><polygon points="-10,-91 10,-91 0,-157.5" transform="rotate(180)"/><polygon points="-10,-91 10,-91 0,-157.5" transform="rotate(205.71)"/><polygon points="-10,-91 10,-91 0,-157.5" transform="rotate(231.43)"/><polygon points="-10,-91 10,-91 0,-157.5" transform="rotate(257.14)"/><polygon points="-10,-91 10,-91 0,-157.5" transform="rotate(282.86)"/><polygon points="-10,-91 10,-91 0,-157.5" transform="rotate(308.57)"/><polygon points="-10,-91 10,-91 0,-157.5" transform="rotate(334.29)"/></g></g>
<g class="pulse"><circle cx="1700" cy="140" r="70" fill="#FFD84D"/><circle cx="1700" cy="140" r="50.4" fill="#FFEC9C"/></g>
<g class="cl" style="animation-delay:0s"><g transform="translate(900 140) scale(0.9)" opacity="0.9"><use href="#cloud"/></g></g>
<g class="cl" style="animation-delay:-6s"><g transform="translate(1250 260) scale(0.5)" opacity="0.8"><use href="#cloud"/></g></g>
<path d="M0 570 C345.6 470 806.4 570 1152 510 S1651.2 470 1920 540 V820 H0Z" fill="url(#h1)"/>
<path d="M0 564 C345.6 564 806.4 656 1152 619.2 S1651.2 656 1920 628.4 V820 H0Z" fill="url(#h2)"/>
<g transform="translate(1450 640) scale(1)">
<ellipse cx="0" cy="6" rx="250" ry="16" fill="#000" opacity=".12"/>
<rect x="-190" y="-170" width="380" height="170" fill="#FFF3DC"/>
<polygon points="-215,-160 -150,-222 150,-222 215,-160" fill="#FF7A5C"/>
<rect x="-50" y="-336" width="100" height="220" fill="#FFE7BF"/>
<polygon points="-66,-336 0,-430 66,-336" fill="#E8503A"/>
<rect x="-5" y="-512" width="10" height="84" fill="#FFD84D"/><rect x="-28" y="-486" width="56" height="10" fill="#FFD84D"/>
<circle cx="0" cy="-262" r="19" fill="#8FD3FF"/>
<path d="M-36 0V-70Q-36-108 0-108Q36-108 36-70V0Z" fill="#FFE58A"/>
<rect x="-152" y="-124" width="52" height="68" rx="26" fill="#8FD3FF"/><rect x="100" y="-124" width="52" height="68" rx="26" fill="#8FD3FF"/>
</g>
<path d="M0 734 C345.6 666 806.4 734 1152 693.2 S1651.2 666 1920 713.6 V820 H0Z" fill="url(#h3)"/>
<path d="M700 830C900 780 1000 760 1200 720C1300 700 1380 690 1450 660L1490 660C1440 700 1340 730 1240 760C1080 810 900 830 800 830Z" fill="#FFE6B0" opacity=".95"/>
<g class="bob" style="animation-delay:-0s"><g transform="translate(1290 720) scale(0.5)">

<rect x="-28" y="-108" width="23" height="108" rx="10" fill="#3E5C9A"/><rect x="5" y="-108" width="23" height="108" rx="10" fill="#3E5C9A"/><path d="M-40-104V-200Q-40-228-14-228H14Q40-228 40-200V-104Z" fill="#FF7A5C"/>
<path d="M-32-206L-88 -176M32-206L88 -176" stroke="#FF7A5C" stroke-width="24" stroke-linecap="round" fill="none"/>
<circle cx="-88" cy="-176" r="13" fill="#FFD3B0"/><circle cx="88" cy="-176" r="13" fill="#FFD3B0"/>
<circle cx="0" cy="-264" r="37" fill="#FFD3B0"/>
<path d="M-39-264C-42-316 42-316 39-264C24-290-24-290-39-264Z" fill="#3A2A1E"/>
<circle cx="-13" cy="-262" r="3.8" fill="#3A2A1E"/><circle cx="13" cy="-262" r="3.8" fill="#3A2A1E"/>
<path d="M-12-247Q0-235 12-247" stroke="#B0603A" stroke-width="4" stroke-linecap="round" fill="none"/>
<circle cx="-23" cy="-249" r="6" fill="#FF8F80" opacity=".5"/><circle cx="23" cy="-249" r="6" fill="#FF8F80" opacity=".5"/>
</g></g>
<g class="bob" style="animation-delay:-2s"><g transform="translate(1620 700) scale(0.5)">
<path d="M-40-262C-58-214-50-176-34-176L-34-262ZM40-262C58-214 50-176 34-176L34-262Z" fill="#6B4A2F"/>
<rect x="-24" y="-70" width="18" height="70" rx="8" fill="#F2B58A"/><rect x="6" y="-70" width="18" height="70" rx="8" fill="#F2B58A"/><path d="M-38-200Q-38-226-14-226H14Q38-226 38-200L62-70H-62Z" fill="#2E9BD6"/>
<path d="M-32-206L-52 -120M32-206L76 -292" stroke="#2E9BD6" stroke-width="24" stroke-linecap="round" fill="none"/>
<circle cx="-52" cy="-120" r="13" fill="#F2B58A"/><circle cx="76" cy="-292" r="13" fill="#F2B58A"/>
<circle cx="0" cy="-264" r="37" fill="#F2B58A"/>
<path d="M-39-264C-42-316 42-316 39-264C24-290-24-290-39-264Z" fill="#6B4A2F"/>
<circle cx="-13" cy="-262" r="3.8" fill="#3A2A1E"/><circle cx="13" cy="-262" r="3.8" fill="#3A2A1E"/>
<path d="M-12-247Q0-235 12-247" stroke="#B0603A" stroke-width="4" stroke-linecap="round" fill="none"/>
<circle cx="-23" cy="-249" r="6" fill="#FF8F80" opacity=".5"/><circle cx="23" cy="-249" r="6" fill="#FF8F80" opacity=".5"/>
</g></g>
<g class="float" style="animation-delay:-0s"><use href="#heart" transform="translate(1330 400) scale(0.8)" fill="#FF6FA3"/></g>
<g class="float" style="animation-delay:-2s"><use href="#heart" transform="translate(1580 380) scale(0.7)" fill="#FF9A6B"/></g>
<g class="float" style="animation-delay:-1s;animation-duration:5s"><g transform="translate(411 297) rotate(176) scale(0.31)"><use href="#leaf" fill="#86C440" opacity=".92"/></g></g>
<g class="float" style="animation-delay:-1s;animation-duration:7s"><g transform="translate(492 332) rotate(195) scale(0.41)"><use href="#leaf" fill="#4FB477" opacity=".92"/></g></g>
<g class="float" style="animation-delay:-5s;animation-duration:6s"><g transform="translate(1638 244) rotate(95) scale(0.43)"><use href="#leaf" fill="#A9DC6B" opacity=".92"/></g></g>
<g class="float" style="animation-delay:-0s;animation-duration:6s"><g transform="translate(550 341) rotate(312) scale(0.23)"><use href="#leaf" fill="#A9DC6B" opacity=".92"/></g></g>
<g class="float" style="animation-delay:-2s;animation-duration:6s"><g transform="translate(845 261) rotate(191) scale(0.24)"><use href="#leaf" fill="#A9DC6B" opacity=".92"/></g></g>
<g class="float" style="animation-delay:-2s;animation-duration:8s"><g transform="translate(840 267) rotate(2) scale(0.4)"><use href="#leaf" fill="#A9DC6B" opacity=".92"/></g></g>
<g class="float" style="animation-delay:-1s;animation-duration:6s"><g transform="translate(760 167) rotate(82) scale(0.41)"><use href="#leaf" fill="#4FB477" opacity=".92"/></g></g>
<g class="float" style="animation-delay:-3s;animation-duration:8s"><g transform="translate(1167 361) rotate(177) scale(0.29)"><use href="#leaf" fill="#4FB477" opacity=".92"/></g></g>
<g class="tw" style="animation-delay:-3s"><use href="#spark" transform="translate(1597 252) scale(0.45)" fill="#FFF6B8"/></g>
<g class="tw" style="animation-delay:-1s"><use href="#spark" transform="translate(272 323) scale(0.7)" fill="#FFF6B8"/></g>
<g class="tw" style="animation-delay:-4s"><use href="#spark" transform="translate(60 250) scale(0.39)" fill="#FFF6B8"/></g>
<g class="tw" style="animation-delay:-1s"><use href="#spark" transform="translate(237 197) scale(0.76)" fill="#FFF6B8"/></g>
<g class="tw" style="animation-delay:-2s"><use href="#spark" transform="translate(188 63) scale(0.53)" fill="#FFF6B8"/></g>
<g class="tw" style="animation-delay:-1s"><use href="#spark" transform="translate(1666 246) scale(0.62)" fill="#FFF6B8"/></g>
<g class="tw" style="animation-delay:-4s"><use href="#spark" transform="translate(1536 332) scale(0.76)" fill="#FFF6B8"/></g>
<g class="tw" style="animation-delay:-4s"><use href="#spark" transform="translate(1246 72) scale(0.71)" fill="#FFF6B8"/></g>
<g class="tw" style="animation-delay:-0s"><use href="#spark" transform="translate(1494 222) scale(0.59)" fill="#FFF6B8"/></g>
<g class="tw" style="animation-delay:-2s"><use href="#spark" transform="translate(1356 339) scale(0.47)" fill="#FFF6B8"/></g>
<g class="tw" style="animation-delay:-3s"><use href="#spark" transform="translate(200 104) scale(0.45)" fill="#FFF6B8"/></g>
<g class="tw" style="animation-delay:-4s"><use href="#spark" transform="translate(936 267) scale(0.36)" fill="#FFF6B8"/></g>
<g class="tw" style="animation-delay:-1s"><use href="#spark" transform="translate(1315 280) scale(0.51)" fill="#FFF6B8"/></g>
<g class="tw" style="animation-delay:-1s"><use href="#spark" transform="translate(196 119) scale(0.32)" fill="#FFF6B8"/></g>
<g class="fly" style="animation-delay:-1s"><use href="#bird" transform="translate(1771 306) scale(0.63)" fill="#2B6E8F" opacity=".72"/></g>
<g class="fly" style="animation-delay:-7s"><use href="#bird" transform="translate(1689 323) scale(0.53)" fill="#2B6E8F" opacity=".72"/></g>
<g class="fly" style="animation-delay:-4s"><use href="#bird" transform="translate(1458 143) scale(0.38)" fill="#2B6E8F" opacity=".72"/></g>

<path d="M0 766 C345.6 766 806.4 814 1152 794.8 S1651.2 814 1920 799.6 V820 H0Z" fill="url(#h4)"/>
<g class="tw" style="animation-delay:-0s;animation-duration:4s"><use href="#flower" transform="translate(1405 789) scale(0.88)" fill="#FFD84D"/></g>
<path d="M1405 789 V823" stroke="#3E9A55" stroke-width="5" stroke-linecap="round"/>
<g class="tw" style="animation-delay:-0s;animation-duration:4s"><use href="#flower" transform="translate(1125 796) scale(0.6)" fill="#FF9A6B"/></g>
<path d="M1125 796 V830" stroke="#3E9A55" stroke-width="5" stroke-linecap="round"/>
<g class="tw" style="animation-delay:-4s;animation-duration:4s"><use href="#flower" transform="translate(1554 802) scale(0.61)" fill="#FFD84D"/></g>
<path d="M1554 802 V836" stroke="#3E9A55" stroke-width="5" stroke-linecap="round"/>
<g class="tw" style="animation-delay:-2s;animation-duration:4s"><use href="#flower" transform="translate(857 780) scale(0.54)" fill="#FF8FB1"/></g>
<path d="M857 780 V814" stroke="#3E9A55" stroke-width="5" stroke-linecap="round"/>
<g class="tw" style="animation-delay:-1s;animation-duration:4s"><use href="#flower" transform="translate(1016 767) scale(0.63)" fill="#FF8FB1"/></g>
<path d="M1016 767 V801" stroke="#3E9A55" stroke-width="5" stroke-linecap="round"/>
<g class="tw" style="animation-delay:-1s;animation-duration:4s"><use href="#flower" transform="translate(1646 784) scale(0.9)" fill="#FFFFFF"/></g>
<path d="M1646 784 V818" stroke="#3E9A55" stroke-width="5" stroke-linecap="round"/>
<g class="tw" style="animation-delay:-0s;animation-duration:4s"><use href="#flower" transform="translate(1795 772) scale(0.82)" fill="#FF9A6B"/></g>
<path d="M1795 772 V806" stroke="#3E9A55" stroke-width="5" stroke-linecap="round"/>
<g class="tw" style="animation-delay:-0s;animation-duration:4s"><use href="#flower" transform="translate(1695 792) scale(0.81)" fill="#FFD84D"/></g>
<path d="M1695 792 V826" stroke="#3E9A55" stroke-width="5" stroke-linecap="round"/>
<g class="tw" style="animation-delay:-4s;animation-duration:4s"><use href="#flower" transform="translate(1044 789) scale(0.8)" fill="#C9A6FF"/></g>
<path d="M1044 789 V823" stroke="#3E9A55" stroke-width="5" stroke-linecap="round"/>
<g class="tw" style="animation-delay:-1s;animation-duration:4s"><use href="#flower" transform="translate(191 753) scale(0.63)" fill="#FFFFFF"/></g>
<path d="M191 753 V787" stroke="#3E9A55" stroke-width="5" stroke-linecap="round"/>
<g class="tw" style="animation-delay:-3s;animation-duration:4s"><use href="#flower" transform="translate(338 757) scale(0.63)" fill="#FF9A6B"/></g>
<path d="M338 757 V791" stroke="#3E9A55" stroke-width="5" stroke-linecap="round"/>
<g class="tw" style="animation-delay:-1s;animation-duration:4s"><use href="#flower" transform="translate(101 753) scale(0.57)" fill="#FF9A6B"/></g>
<path d="M101 753 V787" stroke="#3E9A55" stroke-width="5" stroke-linecap="round"/>
<g class="tw" style="animation-delay:-4s;animation-duration:4s"><use href="#flower" transform="translate(764 768) scale(0.54)" fill="#FFFFFF"/></g>
<path d="M764 768 V802" stroke="#3E9A55" stroke-width="5" stroke-linecap="round"/>
<g class="tw" style="animation-delay:-1s;animation-duration:4s"><use href="#flower" transform="translate(656 762) scale(0.86)" fill="#FF8FB1"/></g>
<path d="M656 762 V796" stroke="#3E9A55" stroke-width="5" stroke-linecap="round"/>
<g class="tw" style="animation-delay:-3s;animation-duration:4s"><use href="#flower" transform="translate(1303 804) scale(0.73)" fill="#FF8FB1"/></g>
<path d="M1303 804 V838" stroke="#3E9A55" stroke-width="5" stroke-linecap="round"/>
<g class="tw" style="animation-delay:-2s;animation-duration:4s"><use href="#flower" transform="translate(1787 769) scale(0.54)" fill="#FF8FB1"/></g>
<path d="M1787 769 V803" stroke="#3E9A55" stroke-width="5" stroke-linecap="round"/>

</svg>