<svg xmlns="http://www.w3.org/2000/svg" viewBox="0 0 1920 820" role="img" aria-label="씨앗에서 열매 맺는 나무까지 자라 가는 다섯 단계">
<defs>
<linearGradient id="skyDay" x1="0" y1="0" x2="0" y2="1"><stop offset="0" stop-color="#7FD0FF"/><stop offset=".55" stop-color="#D3F1FF"/><stop offset="1" stop-color="#FFF6D2"/></linearGradient>
<linearGradient id="skyDawn" x1="0" y1="0" x2="0" y2="1"><stop offset="0" stop-color="#86CBFF"/><stop offset=".5" stop-color="#FFE7B0"/><stop offset="1" stop-color="#FFC08E"/></linearGradient>
<linearGradient id="skyDusk" x1="0" y1="0" x2="0" y2="1"><stop offset="0" stop-color="#4A66DB"/><stop offset=".55" stop-color="#B58AE8"/><stop offset="1" stop-color="#FFB088"/></linearGradient>
<linearGradient id="skyWarm" x1="0" y1="0" x2="0" y2="1"><stop offset="0" stop-color="#FFD48F"/><stop offset=".5" stop-color="#FFE8C4"/><stop offset="1" stop-color="#FFF7E6"/></linearGradient>
<linearGradient id="skySunset" x1="0" y1="0" x2="0" y2="1"><stop offset="0" stop-color="#FF7F6B"/><stop offset=".45" stop-color="#FFB86B"/><stop offset="1" stop-color="#FFE7A0"/></linearGradient>
<linearGradient id="skyMint" x1="0" y1="0" x2="0" y2="1"><stop offset="0" stop-color="#CDEFE0"/><stop offset="1" stop-color="#F3FBEE"/></linearGradient>
<linearGradient id="h1" x1="0" y1="0" x2="0" y2="1"><stop offset="0" stop-color="#CFF08F"/><stop offset="1" stop-color="#A8DC66"/></linearGradient>
<linearGradient id="h2" x1="0" y1="0" x2="0" y2="1"><stop offset="0" stop-color="#9DD650"/><stop offset="1" stop-color="#6FC04A"/></linearGradient>
<linearGradient id="h3" x1="0" y1="0" x2="0" y2="1"><stop offset="0" stop-color="#5EC07E"/><stop offset="1" stop-color="#33A46C"/></linearGradient>
<linearGradient id="h4" x1="0" y1="0" x2="0" y2="1"><stop offset="0" stop-color="#2FA068"/><stop offset="1" stop-color="#1B7F52"/></linearGradient>
<linearGradient id="soil" x1="0" y1="0" x2="0" y2="1"><stop offset="0" stop-color="#C2854C"/><stop offset="1" stop-color="#7E4B29"/></linearGradient>
<linearGradient id="water" x1="0" y1="0" x2="0" y2="1"><stop offset="0" stop-color="#FFC46B" stop-opacity=".9"/><stop offset="1" stop-color="#5BB6E8" stop-opacity=".9"/></linearGradient>
<linearGradient id="bark" x1="0" y1="0" x2="1" y2="0"><stop offset="0" stop-color="#8A5F3A"/><stop offset=".5" stop-color="#BE8F5A"/><stop offset="1" stop-color="#7A5230"/></linearGradient>
<radialGradient id="sunGlow"><stop offset="0" stop-color="#FFF3B8" stop-opacity="1"/><stop offset="1" stop-color="#FFF3B8" stop-opacity="0"/></radialGradient>
<g id="leaf"><path d="M0 0C24-46 96-56 140 0C96 56 24 46 0 0Z"/><path d="M10 0H120" stroke="#fff" stroke-opacity=".4" stroke-width="4" fill="none" stroke-linecap="round"/></g>
<g id="cloud"><ellipse cx="0" cy="0" rx="120" ry="42" fill="#fff"/><ellipse cx="-70" cy="10" rx="70" ry="34" fill="#fff"/><ellipse cx="70" cy="12" rx="80" ry="34" fill="#fff"/><ellipse cx="0" cy="-30" rx="70" ry="42" fill="#fff"/></g>
<g id="spark"><path d="M0-22C3-8 8-3 22 0C8 3 3 8 0 22C-3 8-8 3-22 0C-8-3-3-8 0-22Z"/></g>
<g id="bird"><path d="M-34 0C-20-26-6-22 0-6C6-22 20-26 34 0C20-12 8-10 0 8C-8-10-20-12-34 0Z"/></g>
<g id="fruit"><path d="M0-30q4-22 16-30" stroke="#6B4A2F" stroke-width="6" stroke-linecap="round" fill="none"/><path d="M8-44C22-62 44-60 52-48C40-36 20-36 8-44Z" fill="#5EB03A"/><circle r="38" fill="#FF5A4D"/><path d="M-22-14C-16-28-4-32 6-30" stroke="#fff" stroke-opacity=".55" stroke-width="7" stroke-linecap="round" fill="none"/></g>
<g id="fruitY"><path d="M0-30q4-22 16-30" stroke="#6B4A2F" stroke-width="6" stroke-linecap="round" fill="none"/><path d="M8-44C22-62 44-60 52-48C40-36 20-36 8-44Z" fill="#5EB03A"/><circle r="38" fill="#FFB52E"/><path d="M-22-14C-16-28-4-32 6-30" stroke="#fff" stroke-opacity=".6" stroke-width="7" stroke-linecap="round" fill="none"/></g>
<path id="drop" d="M0-44C30-6 30 26 0 26C-30 26-30-6 0-44Z"/>
<g id="note"><ellipse cx="0" cy="0" rx="13" ry="9" transform="rotate(-22)"/><rect x="10" y="-64" width="6" height="62"/><path d="M16-64q26 6 28 32q-12-16-28-18Z"/></g>
<g id="heart"><path d="M0 18C-30-6-26-30-8-30C-2-30 0-24 0-22C0-24 2-30 8-30C26-30 30-6 0 18Z"/></g>
<g id="flower"><ellipse cx="0" cy="-16" rx="9" ry="15"/><ellipse cx="0" cy="-16" rx="9" ry="15" transform="rotate(72)"/><ellipse cx="0" cy="-16" rx="9" ry="15" transform="rotate(144)"/><ellipse cx="0" cy="-16" rx="9" ry="15" transform="rotate(216)"/><ellipse cx="0" cy="-16" rx="9" ry="15" transform="rotate(288)"/><circle r="8" fill="#FFD84D"/></g>
<style>
.sway{transform-box:fill-box;transform-origin:50% 100%;animation:sway 6s ease-in-out infinite}
@keyframes sway{0%,100%{transform:rotate(-1.6deg)}50%{transform:rotate(1.6deg)}}
.float{animation:float 6s ease-in-out infinite}
@keyframes float{0%,100%{transform:translateY(0)}50%{transform:translateY(-16px)}}
.bob{animation:bob 2.4s ease-in-out infinite}
@keyframes bob{0%,100%{transform:translateY(0)}50%{transform:translateY(-10px)}}
.cl{animation:cl 18s ease-in-out infinite alternate}
@keyframes cl{from{transform:translateX(-30px)}to{transform:translateX(40px)}}
.spin{transform-box:fill-box;transform-origin:50% 50%;animation:spin 70s linear infinite}
@keyframes spin{to{transform:rotate(360deg)}}
.tw{animation:tw 3s ease-in-out infinite}
@keyframes tw{0%,100%{opacity:.25}50%{opacity:1}}
.fall{animation:fall 3.2s ease-in infinite}
@keyframes fall{0%{transform:translateY(-40px);opacity:0}15%{opacity:1}100%{transform:translateY(130px);opacity:0}}
.fly{animation:fly 16s ease-in-out infinite alternate}
@keyframes fly{from{transform:translate(-40px,10px)}to{transform:translate(70px,-30px)}}
.pulse{transform-box:fill-box;transform-origin:50% 50%;animation:pulse 3.6s ease-in-out infinite}
@keyframes pulse{0%,100%{transform:scale(1);opacity:.92}50%{transform:scale(1.07);opacity:1}}
@media (prefers-reduced-motion:reduce){*{animation:none!important}}
</style>
</defs>
<rect width="1920" height="820" fill="url(#skyDay)"/>
<circle cx="1700" cy="150" r="266.4" fill="url(#sunGlow)"/>
<g class="spin"><g transform="translate(1700 150)" fill="#FFD84D" opacity=".55"><polygon points="-10,-96.2 10,-96.2 0,-166.5" transform="rotate(0)"/><polygon points="-10,-96.2 10,-96.2 0,-166.5" transform="rotate(25.71)"/><polygon points="-10,-96.2 10,-96.2 0,-166.5" transform="rotate(51.43)"/><polygon points="-10,-96.2 10,-96.2 0,-166.5" transform="rotate(77.14)"/><polygon points="-10,-96.2 10,-96.2 0,-166.5" transform="rotate(102.86)"/><polygon points="-10,-96.2 10,-96.2 0,-166.5" transform="rotate(128.57)"/><polygon points="-10,-96.2 10,-96.2 0,-166.5" transform="rotate(154.29)"/><polygon points="-10,-96.2 10,-96.2 0,-166.5" transform="rotate(180)"/><polygon points="-10,-96.2 10,-96.2 0,-166.5" transform="rotate(205.71)"/><polygon points="-10,-96.2 10,-96.2 0,-166.5" transform="rotate(231.43)"/><polygon points="-10,-96.2 10,-96.2 0,-166.5" transform="rotate(257.14)"/><polygon points="-10,-96.2 10,-96.2 0,-166.5" transform="rotate(282.86)"/><polygon points="-10,-96.2 10,-96.2 0,-166.5" transform="rotate(308.57)"/><polygon points="-10,-96.2 10,-96.2 0,-166.5" transform="rotate(334.29)"/></g></g>
<g class="pulse"><circle cx="1700" cy="150" r="74" fill="#FFD84D"/><circle cx="1700" cy="150" r="53.28" fill="#FFEC9C"/></g>
<g class="cl" style="animation-delay:0s"><g transform="translate(900 120) scale(0.9)" opacity="0.9"><use href="#cloud"/></g></g>
<g class="cl" style="animation-delay:-7s"><g transform="translate(1450 250) scale(0.5)" opacity="0.8"><use href="#cloud"/></g></g>
<path d="M0 610 C345.6 510 806.4 610 1152 550 S1651.2 510 1920 580 V820 H0Z" fill="url(#h1)"/>
<path d="M0 594 C345.6 594 806.4 686 1152 649.2 S1651.2 686 1920 658.4 V820 H0Z" fill="url(#h2)"/>
<path d="M0 752 C345.6 688 806.4 752 1152 713.6 S1651.2 688 1920 732.8 V820 H0Z" fill="url(#h3)"/>
<g fill="#8A5F3A"><ellipse cx="830" cy="700" rx="46" ry="14"/><ellipse cx="1030" cy="706" rx="52" ry="15"/></g>
<g class="sway"><g transform="translate(830 690)"><path d="M0 0V-70" stroke="#4FB43A" stroke-width="10" stroke-linecap="round"/><use href="#leaf" transform="translate(0 -46) rotate(-150) scale(.42)" fill="#86C440"/><use href="#leaf" transform="translate(0 -46) rotate(-30) scale(.42)" fill="#B6E67A"/></g></g>
<g class="sway"><g transform="translate(1030 700)"><path d="M0 0V-150" stroke="#4FB43A" stroke-width="12" stroke-linecap="round"/><use href="#leaf" transform="translate(0 -90) rotate(-155) scale(.55)" fill="#86C440"/><use href="#leaf" transform="translate(0 -90) rotate(-25) scale(.55)" fill="#B6E67A"/><use href="#leaf" transform="translate(0 -150) rotate(-120) scale(.5)" fill="#86C440"/><use href="#leaf" transform="translate(0 -150) rotate(-60) scale(.5)" fill="#B6E67A"/></g></g>
<g class="sway" style="animation-delay:-1s"><g transform="translate(1215 715) scale(0.34)">
<ellipse cx="0" cy="8" rx="130" ry="14" fill="#000" opacity=".12"/>
<path d="M-52 0C-34-34-28-100-24-200H24C28-100 34-34 52 0Z" fill="url(#bark)"/>
<path d="M-8-30V-190M14-20V-170" stroke="#4A3220" stroke-opacity=".25" stroke-width="5" stroke-linecap="round"/>
<path d="M-14-170C-70-190-110-220-135-262M14-170C70-190 110-220 135-262" stroke="#A47848" stroke-width="22" stroke-linecap="round" fill="none"/>
<circle cx="-120" cy="-270" r="105" fill="#2E9A66"/><circle cx="120" cy="-270" r="105" fill="#2E9A66"/><circle cx="0" cy="-330" r="150" fill="#33A36B"/>
<circle cx="-80" cy="-300" r="100" fill="#4FB477"/><circle cx="85" cy="-310" r="92" fill="#7CCB5A"/><circle cx="-30" cy="-390" r="70" fill="#A9DC6B" opacity=".85"/><circle cx="-130" cy="-290" r="48" fill="#A9DC6B" opacity=".55"/>
</g></g>
<g class="sway" style="animation-delay:-2s"><g transform="translate(1440 720) scale(0.62)">
<ellipse cx="0" cy="8" rx="130" ry="14" fill="#000" opacity=".12"/>
<path d="M-52 0C-34-34-28-100-24-200H24C28-100 34-34 52 0Z" fill="url(#bark)"/>
<path d="M-8-30V-190M14-20V-170" stroke="#4A3220" stroke-opacity=".25" stroke-width="5" stroke-linecap="round"/>
<path d="M-14-170C-70-190-110-220-135-262M14-170C70-190 110-220 135-262" stroke="#A47848" stroke-width="22" stroke-linecap="round" fill="none"/>
<circle cx="-120" cy="-270" r="105" fill="#2E9A66"/><circle cx="120" cy="-270" r="105" fill="#2E9A66"/><circle cx="0" cy="-330" r="150" fill="#33A36B"/>
<circle cx="-80" cy="-300" r="100" fill="#4FB477"/><circle cx="85" cy="-310" r="92" fill="#7CCB5A"/><circle cx="-30" cy="-390" r="70" fill="#A9DC6B" opacity=".85"/><circle cx="-130" cy="-290" r="48" fill="#A9DC6B" opacity=".55"/>
</g></g>
<g class="sway" style="animation-delay:-3s"><g transform="translate(1680 725) scale(0.82)">
<ellipse cx="0" cy="8" rx="130" ry="14" fill="#000" opacity=".12"/>
<path d="M-52 0C-34-34-28-100-24-200H24C28-100 34-34 52 0Z" fill="url(#bark)"/>
<path d="M-8-30V-190M14-20V-170" stroke="#4A3220" stroke-opacity=".25" stroke-width="5" stroke-linecap="round"/>
<path d="M-14-170C-70-190-110-220-135-262M14-170C70-190 110-220 135-262" stroke="#A47848" stroke-width="22" stroke-linecap="round" fill="none"/>
<circle cx="-120" cy="-270" r="105" fill="#2E9A66"/><circle cx="120" cy="-270" r="105" fill="#2E9A66"/><circle cx="0" cy="-330" r="150" fill="#33A36B"/>
<circle cx="-80" cy="-300" r="100" fill="#4FB477"/><circle cx="85" cy="-310" r="92" fill="#7CCB5A"/><circle cx="-30" cy="-390" r="70" fill="#A9DC6B" opacity=".85"/><circle cx="-130" cy="-290" r="48" fill="#A9DC6B" opacity=".55"/>
<use href="#fruit" transform="translate(-150 -250) scale(.62)"/><use href="#fruit" transform="translate(-40 -330) scale(.62)"/><use href="#fruitY" transform="translate(80 -300) scale(.62)"/><use href="#fruit" transform="translate(150 -240) scale(.62)"/><use href="#fruitY" transform="translate(-90 -200) scale(.62)"/><use href="#fruit" transform="translate(20 -240) scale(.62)"/><use href="#fruit" transform="translate(-170 -330) scale(.62)"/><use href="#fruit" transform="translate(140 -360) scale(.62)"/><use href="#fruitY" transform="translate(-10 -420) scale(.62)"/><use href="#fruit" transform="translate(95 -190) scale(.62)"/><use href="#fruit" transform="translate(-60 -270) scale(.62)"/></g></g>
<g class="float" style="animation-delay:-0s;animation-duration:6s"><g transform="translate(863 365) rotate(348) scale(0.41)"><use href="#leaf" fill="#C6EC8A" opacity=".92"/></g></g>
<g class="float" style="animation-delay:-4s;animation-duration:8s"><g transform="translate(256 154) rotate(280) scale(0.28)"><use href="#leaf" fill="#C6EC8A" opacity=".92"/></g></g>
<g class="float" style="animation-delay:-3s;animation-duration:8s"><g transform="translate(562 363) rotate(172) scale(0.33)"><use href="#leaf" fill="#A9DC6B" opacity=".92"/></g></g>
<g class="float" style="animation-delay:-0s;animation-duration:5s"><g transform="translate(305 318) rotate(222) scale(0.33)"><use href="#leaf" fill="#86C440" opacity=".92"/></g></g>
<g class="float" style="animation-delay:-2s;animation-duration:5s"><g transform="translate(1665 347) rotate(264) scale(0.37)"><use href="#leaf" fill="#86C440" opacity=".92"/></g></g>
<g class="float" style="animation-delay:-3s;animation-duration:5s"><g transform="translate(156 92) rotate(305) scale(0.3)"><use href="#leaf" fill="#86C440" opacity=".92"/></g></g>
<g class="float" style="animation-delay:-0s;animation-duration:8s"><g transform="translate(1430 237) rotate(37) scale(0.49)"><use href="#leaf" fill="#86C440" opacity=".92"/></g></g>
<g class="float" style="animation-delay:-0s;animation-duration:6s"><g transform="translate(610 380) rotate(121) scale(0.38)"><use href="#leaf" fill="#4FB477" opacity=".92"/></g></g>
<g class="tw" style="animation-delay:-3s"><use href="#spark" transform="translate(301 182) scale(0.44)" fill="#FFF6B8"/></g>
<g class="tw" style="animation-delay:-2s"><use href="#spark" transform="translate(84 142) scale(0.41)" fill="#FFF6B8"/></g>
<g class="tw" style="animation-delay:-1s"><use href="#spark" transform="translate(121 304) scale(0.63)" fill="#FFF6B8"/></g>
<g class="tw" style="animation-delay:-3s"><use href="#spark" transform="translate(1444 139) scale(0.71)" fill="#FFF6B8"/></g>
<g class="tw" style="animation-delay:-3s"><use href="#spark" transform="translate(183 125) scale(0.37)" fill="#FFF6B8"/></g>
<g class="tw" style="animation-delay:-2s"><use href="#spark" transform="translate(729 146) scale(0.56)" fill="#FFF6B8"/></g>
<g class="tw" style="animation-delay:-2s"><use href="#spark" transform="translate(375 74) scale(0.41)" fill="#FFF6B8"/></g>
<g class="tw" style="animation-delay:-2s"><use href="#spark" transform="translate(1695 199) scale(0.78)" fill="#FFF6B8"/></g>
<g class="tw" style="animation-delay:-3s"><use href="#spark" transform="translate(873 375) scale(0.76)" fill="#FFF6B8"/></g>
<g class="tw" style="animation-delay:-1s"><use href="#spark" transform="translate(1075 268) scale(0.37)" fill="#FFF6B8"/></g>
<g class="tw" style="animation-delay:-2s"><use href="#spark" transform="translate(46 181) scale(0.52)" fill="#FFF6B8"/></g>
<g class="tw" style="animation-delay:-2s"><use href="#spark" transform="translate(642 339) scale(0.42)" fill="#FFF6B8"/></g>
<g class="fly" style="animation-delay:-3s"><use href="#bird" transform="translate(935 150) scale(0.43)" fill="#2B6E8F" opacity=".72"/></g>
<g class="fly" style="animation-delay:-7s"><use href="#bird" transform="translate(987 146) scale(0.63)" fill="#2B6E8F" opacity=".72"/></g>
<g class="fly" style="animation-delay:-7s"><use href="#bird" transform="translate(1523 293) scale(0.51)" fill="#2B6E8F" opacity=".72"/></g>

<path d="M0 754 C345.6 754 806.4 806 1152 785.2 S1651.2 806 1920 790.4 V820 H0Z" fill="url(#h4)"/>
<g class="tw" style="animation-delay:-2s;animation-duration:4s"><use href="#flower" transform="translate(1157 801) scale(0.79)" fill="#FFFFFF"/></g>
<path d="M1157 801 V835" stroke="#3E9A55" stroke-width="5" stroke-linecap="round"/>
<g class="tw" style="animation-delay:-1s;animation-duration:4s"><use href="#flower" transform="translate(1661 774) scale(0.74)" fill="#FF9A6B"/></g>
<path d="M1661 774 V808" stroke="#3E9A55" stroke-width="5" stroke-linecap="round"/>
<g class="tw" style="animation-delay:-3s;animation-duration:4s"><use href="#flower" transform="translate(188 782) scale(0.87)" fill="#C9A6FF"/></g>
<path d="M188 782 V816" stroke="#3E9A55" stroke-width="5" stroke-linecap="round"/>
<g class="tw" style="animation-delay:-2s;animation-duration:4s"><use href="#flower" transform="translate(627 766) scale(0.9)" fill="#C9A6FF"/></g>
<path d="M627 766 V800" stroke="#3E9A55" stroke-width="5" stroke-linecap="round"/>
<g class="tw" style="animation-delay:-0s;animation-duration:4s"><use href="#flower" transform="translate(55 782) scale(0.56)" fill="#FF9A6B"/></g>
<path d="M55 782 V816" stroke="#3E9A55" stroke-width="5" stroke-linecap="round"/>
<g class="tw" style="animation-delay:-4s;animation-duration:4s"><use href="#flower" transform="translate(179 746) scale(0.89)" fill="#FF9A6B"/></g>
<path d="M179 746 V780" stroke="#3E9A55" stroke-width="5" stroke-linecap="round"/>
<g class="tw" style="animation-delay:-3s;animation-duration:4s"><use href="#flower" transform="translate(713 777) scale(0.75)" fill="#FF8FB1"/></g>
<path d="M713 777 V811" stroke="#3E9A55" stroke-width="5" stroke-linecap="round"/>
<g class="tw" style="animation-delay:-1s;animation-duration:4s"><use href="#flower" transform="translate(486 799) scale(0.71)" fill="#FF9A6B"/></g>
<path d="M486 799 V833" stroke="#3E9A55" stroke-width="5" stroke-linecap="round"/>
<g class="tw" style="animation-delay:-0s;animation-duration:4s"><use href="#flower" transform="translate(285 774) scale(0.76)" fill="#FFD84D"/></g>
<path d="M285 774 V808" stroke="#3E9A55" stroke-width="5" stroke-linecap="round"/>
<g class="tw" style="animation-delay:-1s;animation-duration:4s"><use href="#flower" transform="translate(246 812) scale(0.61)" fill="#C9A6FF"/></g>
<path d="M246 812 V846" stroke="#3E9A55" stroke-width="5" stroke-linecap="round"/>
<g class="tw" style="animation-delay:-2s;animation-duration:4s"><use href="#flower" transform="translate(1062 775) scale(0.88)" fill="#FFFFFF"/></g>
<path d="M1062 775 V809" stroke="#3E9A55" stroke-width="5" stroke-linecap="round"/>
<g class="tw" style="animation-delay:-1s;animation-duration:4s"><use href="#flower" transform="translate(1641 798) scale(0.55)" fill="#C9A6FF"/></g>
<path d="M1641 798 V832" stroke="#3E9A55" stroke-width="5" stroke-linecap="round"/>
<g class="tw" style="animation-delay:-1s;animation-duration:4s"><use href="#flower" transform="translate(1526 777) scale(0.67)" fill="#FF8FB1"/></g>
<path d="M1526 777 V811" stroke="#3E9A55" stroke-width="5" stroke-linecap="round"/>
<g class="tw" style="animation-delay:-3s;animation-duration:4s"><use href="#flower" transform="translate(1833 811) scale(0.77)" fill="#FFD84D"/></g>
<path d="M1833 811 V845" stroke="#3E9A55" stroke-width="5" stroke-linecap="round"/>

</svg>